<?xml version="1.0" encoding="UTF-8" standalone="no"?>
<svg width="512px" height="512px" viewBox="0 0 512 512" version="1.1" xmlns="http://www.w3.org/2000/svg" xmlns:xlink="http://www.w3.org/1999/xlink">
    <!-- Generator: Sketch 39.1 (31720) - http://www.bohemiancoding.com/sketch -->
    <title>check</title>
    <desc>Created with Sketch.</desc>
    <defs></defs>
    <g id="Page-1" stroke="none" stroke-width="1" fill="none" fill-rule="evenodd">
        <g id="check" fill="#000000">
            <path d="M460.86478,70.1852073 C454.660189,63.9382642 444.538024,63.9382642 438.375785,70.1852073 L201.62723,305.853782 C195.422639,312.143077 185.300474,312.143077 179.138235,305.853782 L75.3966277,200.206328 C72.3260963,197.072268 68.2814654,195.526415 64.2580105,195.505238 C60.1710274,195.484062 56.0205161,197.029916 52.9076326,200.206328 L7.06142313,241.414976 C4.01206786,244.549036 2.36033376,248.46661 2.36033376,252.553593 C2.36033376,256.661752 4.01206786,260.960496 7.08259921,264.07338 L111.692426,373.85017 C117.875841,380.139465 128.019182,390.282806 134.181421,396.508573 L179.159411,441.846557 C185.342826,448.051148 195.443815,448.051148 201.648406,441.846557 L505.863946,138.181595 C512.068537,131.955828 512.068537,121.727782 505.863946,115.502015 L460.86478,70.1852073 Z" id="Fill-1"></path>
        </g>
    </g>
</svg>