<?xml version="1.0" encoding="UTF-8" standalone="no"?>
<svg width="512px" height="512px" viewBox="0 0 512 512" version="1.1" xmlns="http://www.w3.org/2000/svg" xmlns:xlink="http://www.w3.org/1999/xlink">
    <!-- Generator: Sketch 39.1 (31720) - http://www.bohemiancoding.com/sketch -->
    <title>facebook</title>
    <desc>Created with Sketch.</desc>
    <defs></defs>
    <g id="Page-1" stroke="none" stroke-width="1" fill="none" fill-rule="evenodd">
        <g id="facebook" fill="#000000">
            <path d="M256,512 C114.619733,512 0,397.380267 0,256 C0,114.6112 114.619733,0 256,0 C397.380267,0 512,114.6112 512,256 C512,397.380267 397.380267,512 256,512 Z M219.861333,395.264 L277.410133,395.264 L277.410133,255.982933 L315.8016,255.982933 L320.887467,207.991467 L277.410133,207.991467 L277.469867,183.9616 C277.469867,171.451733 278.664533,164.736 296.618667,164.736 L320.6144,164.736 L320.6144,116.736 L282.2144,116.736 C236.091733,116.736 219.861333,140.023467 219.861333,179.1744 L219.861333,207.991467 L191.112533,207.991467 L191.112533,255.991467 L219.861333,255.991467 L219.861333,395.264 Z" id="Combined-Shape"></path>
        </g>
    </g>
</svg>