<?xml version="1.0" encoding="UTF-8" standalone="no"?>
<svg width="512px" height="512px" viewBox="0 0 512 512" version="1.1" xmlns="http://www.w3.org/2000/svg" xmlns:xlink="http://www.w3.org/1999/xlink">
    <!-- Generator: Sketch 39.1 (31720) - http://www.bohemiancoding.com/sketch -->
    <title>noticias</title>
    <desc>Created with Sketch.</desc>
    <defs></defs>
    <g id="Page-1" stroke="none" stroke-width="1" fill="none" fill-rule="evenodd">
        <g id="noticias" fill="#000000">
            <path d="M382.64247,160.650582 L126.813137,160.650582 L126.813137,121.28946 L382.651453,121.28946 L382.651453,160.650582 L382.64247,160.650582 Z M382.64247,266.922021 L126.813137,266.922021 L126.813137,227.560898 L382.651453,227.560898 L382.651453,266.922021 L382.64247,266.922021 Z M382.64247,373.184477 L126.813137,373.184477 L126.813137,333.827846 L382.651453,333.827846 L382.651453,373.184477 L382.64247,373.184477 Z M416.106611,1.00089825 L93.3579789,1.00089825 C71.6159439,1.00089825 54.0013474,18.619986 54.0013474,40.3620211 L54.0013474,470.707004 C54.0013474,492.449039 71.6159439,510.072618 93.3579789,510.072618 L416.097628,510.072618 C437.844154,510.072618 455.458751,492.449039 455.458751,470.707004 L455.458751,40.3620211 C455.458751,18.6244772 437.844154,1.00089825 416.106611,1.00089825 L416.106611,1.00089825 Z" id="Fill-1"></path>
        </g>
    </g>
</svg>