<?xml version="1.0" encoding="UTF-8" standalone="no"?>
<svg width="512px" height="512px" viewBox="0 0 512 512" version="1.1" xmlns="http://www.w3.org/2000/svg" xmlns:xlink="http://www.w3.org/1999/xlink">
    <!-- Generator: Sketch 39.1 (31720) - http://www.bohemiancoding.com/sketch -->
    <title>twitter</title>
    <desc>Created with Sketch.</desc>
    <defs></defs>
    <g id="Page-1" stroke="none" stroke-width="1" fill="none" fill-rule="evenodd">
        <g id="twitter" fill="#000000">
            <path d="M256,512 C114.619733,512 0,397.380267 0,256 C0,114.6112 114.619733,0 256,0 C397.380267,0 512,114.6112 512,256 C512,397.380267 397.380267,512 256,512 Z M291.5584,156.014933 C269.2096,164.1472 255.086933,185.122133 256.6912,208.0768 L257.237333,216.9344 L248.285867,215.850667 C215.748267,211.694933 187.3152,197.597867 163.1744,173.909333 L151.3728,162.158933 L148.334933,170.837333 C141.9008,190.1824 146.013867,210.6112 159.419733,224.349867 C166.570667,231.944533 164.957867,233.028267 152.6272,228.5056 C148.334933,227.063467 144.580267,225.979733 144.221867,226.517333 C142.976,227.7888 147.259733,244.232533 150.656,250.743467 C155.306667,259.780267 164.778667,268.629333 175.1552,273.885867 L183.918933,278.0416 L173.550933,278.2208 C163.541333,278.2208 163.182933,278.4 164.258133,282.197333 C167.8336,293.956267 181.956267,306.432 197.691733,311.8592 L208.776533,315.648 L199.125333,321.4336 C184.823467,329.770667 168.0128,334.446933 151.202133,334.7968 C143.146667,334.984533 136.533333,335.709867 136.533333,336.256 C136.533333,338.056533 158.353067,348.177067 171.042133,352.170667 C209.1264,363.912533 254.370133,358.843733 288.341333,338.781867 C312.482133,324.497067 336.6144,296.1152 347.886933,268.629333 C353.962667,253.994667 360.046933,227.234133 360.046933,214.408533 C360.046933,206.088533 360.584533,205.0048 370.602667,195.063467 C376.4992,189.277867 382.037333,182.954667 383.112533,181.1456 C384.896,177.706667 384.7168,177.706667 375.6032,180.778667 C360.3968,186.205867 358.2464,185.480533 365.764267,177.348267 C371.319467,171.562667 377.9328,161.0752 377.9328,158.0032 C377.9328,157.4656 375.253333,158.3616 372.206933,159.991467 C368.989867,161.800533 361.8304,164.514133 356.462933,166.135467 L346.820267,169.216 L338.056533,163.242667 C333.226667,159.991467 326.442667,156.373333 322.858667,155.2896 C313.736533,152.763733 299.784533,153.122133 291.5584,156.014933 Z" id="Combined-Shape"></path>
        </g>
    </g>
</svg>