<?xml version="1.0" encoding="UTF-8" standalone="no"?>
<svg width="512px" height="512px" viewBox="0 0 512 512" version="1.1" xmlns="http://www.w3.org/2000/svg" xmlns:xlink="http://www.w3.org/1999/xlink">
    <!-- Generator: Sketch 39.1 (31720) - http://www.bohemiancoding.com/sketch -->
    <title>campounad</title>
    <desc>Created with Sketch.</desc>
    <defs></defs>
    <g id="Page-1" stroke="none" stroke-width="1" fill="none" fill-rule="evenodd">
        <g id="campounad" fill="#000000">
            <path d="M200.347826,178.086957 L200.347826,200.347826 L233.73913,200.347826 L233.73913,356.173913 L200.347826,356.173913 L200.347826,378.434783 L322.782609,378.434783 L322.782609,356.173913 L289.391304,356.173913 L289.391304,178.086957 L200.347826,178.086957 Z M261.565217,155.826087 C276.925217,155.826087 289.391304,143.36 289.391304,128 C289.391304,112.64 276.925217,100.173913 261.565217,100.173913 C246.205217,100.173913 233.73913,112.64 233.73913,128 C233.73913,143.36 246.205217,155.826087 261.565217,155.826087 L261.565217,155.826087 Z M0,256 C0,114.621217 114.621217,0 256,0 C397.401043,0 512,114.621217 512,256 C512,397.401043 397.401043,512 256,512 C114.621217,512 0,397.401043 0,256 L0,256 Z" id="Page-1"></path>
        </g>
    </g>
</svg>