<?xml version="1.0" encoding="UTF-8" standalone="no"?>
<svg width="512px" height="512px" viewBox="0 0 512 512" version="1.1" xmlns="http://www.w3.org/2000/svg" xmlns:xlink="http://www.w3.org/1999/xlink">
    <!-- Generator: Sketch 39.1 (31720) - http://www.bohemiancoding.com/sketch -->
    <title>educacion basica media</title>
    <desc>Created with Sketch.</desc>
    <defs></defs>
    <g id="Page-1" stroke="none" stroke-width="1" fill="none" fill-rule="evenodd">
        <g id="educacion-basica-media" fill="#000000">
            <path d="M338.134454,81.4285714 L436.781513,63 L510.857143,431.571429 L412.210084,450 L338.134454,81.4285714 Z M429.193277,383.516218 C431.361345,394.356555 442.201681,401.218487 453.042017,399.05042 C464.240084,396.882353 471.466975,386.403361 469.302521,375.92437 C467.134454,365.084034 456.294118,358.222101 445.453782,360.386555 C434.252101,362.554622 427.02521,372.675882 429.193277,383.516218 L429.193277,383.516218 Z M374.991597,116.840336 L399.92437,240.420168 L441.117647,232.831933 L416.184874,109.252101 L374.991597,116.840336 Z M30.2689076,241.865546 L72.1848739,241.865546 L72.1848739,115.756303 L30.2689076,115.756303 L30.2689076,241.865546 Z M30.6302521,387.848739 C30.6302521,398.689076 39.6638655,407.722689 50.8655462,407.722689 C62.0672269,407.722689 71.4621849,398.689076 71.4621849,387.848739 C71.4621849,377.008403 62.4285714,367.97479 50.8655462,367.97479 C39.6638655,367.97479 30.6302521,377.008403 30.6302521,387.848739 L30.6302521,387.848739 Z M1,450 L101.453782,450 L101.453782,74.5630252 L1,74.5630252 L1,450 Z M148.067227,241.865546 L189.983193,241.865546 L189.983193,115.756303 L148.067227,115.756303 L148.067227,241.865546 Z M148.789916,387.848739 C148.789916,398.689076 157.823529,407.722689 169.386555,407.722689 C180.588235,407.722689 189.621849,398.689076 189.621849,387.848739 C189.621849,377.008403 180.588235,367.97479 169.386555,367.97479 C157.823529,367.97479 148.789916,377.008403 148.789916,387.848739 L148.789916,387.848739 Z M118.798319,450 L219.252101,450 L219.252101,74.5630252 L118.798319,74.5630252 L118.798319,450 Z M259.361345,114.672269 L273.092437,239.697479 L314.647059,235.722689 L301.277311,110.697479 L259.361345,114.672269 Z M289.352941,385.322941 C290.436975,396.163277 300.554622,404.109244 311.756303,403.02521 C322.957983,401.941176 331.268908,392.184874 329.823529,381.344538 C328.735882,370.504202 318.621849,362.554622 307.420168,363.642269 C296.214874,364.722689 288.268908,374.482605 289.352941,385.322941 L289.352941,385.322941 Z M226.117647,76.7310924 L325.848739,66.6134454 L366.319328,439.882353 L266.588235,450 L226.117647,76.7310924 Z" id="Fill-1"></path>
        </g>
    </g>
</svg>