<?xml version="1.0" encoding="UTF-8" standalone="no"?>
<svg width="512px" height="512px" viewBox="0 0 512 512" version="1.1" xmlns="http://www.w3.org/2000/svg" xmlns:xlink="http://www.w3.org/1999/xlink">
    <!-- Generator: Sketch 39.1 (31720) - http://www.bohemiancoding.com/sketch -->
    <title>inicio</title>
    <desc>Created with Sketch.</desc>
    <defs></defs>
    <g id="Page-1" stroke="none" stroke-width="1" fill="none" fill-rule="evenodd">
        <g id="inicio" fill="#020202">
            <path d="M480.844077,185.940226 L269.480589,8.13152229 C261.869712,1.74164214 250.776736,1.74164214 243.174904,8.13152229 L30.3145649,187.201922 C23.7437964,192.72806 21.3334594,201.772476 24.2728947,209.835574 C27.2168523,217.898671 34.8819951,223.271054 43.4696684,223.271054 L74.523672,223.271054 L74.523672,460.637239 C74.523672,487.716221 96.4789927,509.66702 123.553453,509.66702 L193.005526,509.66702 L193.005526,370.762874 C193.005526,361.745591 200.326981,354.424136 209.348787,354.424136 L303.31575,354.424136 C312.342078,354.424136 319.654488,361.745591 319.654488,370.762874 L319.654488,509.671542 L389.111084,509.671542 C416.185544,509.671542 438.136343,487.707177 438.136343,460.641761 L438.136343,223.271054 L469.185824,223.271054 C469.249135,223.275576 469.32149,223.271054 469.36219,223.271054 C480.645099,223.271054 489.789004,214.127149 489.789004,202.839717 C489.77996,195.812206 486.239071,189.607736 480.844077,185.940226 L480.844077,185.940226 Z" id="Shape"></path>
        </g>
    </g>
</svg>