<?xml version="1.0" encoding="UTF-8" standalone="no"?>
<svg width="512px" height="512px" viewBox="0 0 512 512" version="1.1" xmlns="http://www.w3.org/2000/svg" xmlns:xlink="http://www.w3.org/1999/xlink">
    <!-- Generator: Sketch 39.1 (31720) - http://www.bohemiancoding.com/sketch -->
    <title>mediosunad</title>
    <desc>Created with Sketch.</desc>
    <defs></defs>
    <g id="Page-1" stroke="none" stroke-width="1" fill="none" fill-rule="evenodd">
        <g id="mediosunad" fill="#000000">
            <path d="M256,290.181818 C148.945455,290.181818 116.363636,366.981818 116.363636,366.981818 L116.363636,406.545455 L395.636364,406.545455 L395.636364,366.981818 C395.636364,366.981818 363.054545,290.181818 256,290.181818 Z M256,243.636364 C295.563636,243.636364 325.818182,213.381818 325.818182,173.818182 C325.818182,134.254545 295.563636,104 256,104 C216.436364,104 186.181818,134.254545 186.181818,173.818182 C186.181818,213.381818 216.436364,243.636364 256,243.636364 Z M407.272727,220.363636 C439.405519,220.363636 465.454545,194.31461 465.454545,162.181818 C465.454545,130.049027 439.405519,104 407.272727,104 C375.139936,104 349.090909,130.049027 349.090909,162.181818 C349.090909,194.31461 375.139936,220.363636 407.272727,220.363636 Z M407.272727,266.909091 C379.345455,266.909091 358.4,273.890909 342.109091,285.527273 C395.636364,311.127273 416.581818,355.345455 416.581818,360 L416.581818,362.327273 L512,362.327273 L512,332.072727 C512,329.745455 486.4,266.909091 407.272727,266.909091 Z M104.727273,220.363636 C136.860064,220.363636 162.909091,194.31461 162.909091,162.181818 C162.909091,130.049027 136.860064,104 104.727273,104 C72.5944813,104 46.5454545,130.049027 46.5454545,162.181818 C46.5454545,194.31461 72.5944813,220.363636 104.727273,220.363636 Z M169.890818,285.527638 C153.599909,273.891274 132.654454,266.909456 104.727181,266.909456 C25.5999087,266.909456 -9.12655973e-05,329.744907 -9.12655973e-05,332.073092 L-9.12655973e-05,362.326725 L95.4180906,362.326725 L95.4180906,360.000365 C95.4180906,355.34582 116.363545,311.127638 169.890818,285.527638 Z" id="Combined-Shape"></path>
        </g>
    </g>
</svg>