<?xml version="1.0" encoding="UTF-8" standalone="no"?>
<svg width="512px" height="512px" viewBox="0 0 512 512" version="1.1" xmlns="http://www.w3.org/2000/svg" xmlns:xlink="http://www.w3.org/1999/xlink">
    <!-- Generator: Sketch 39.1 (31720) - http://www.bohemiancoding.com/sketch -->
    <title>objetivos</title>
    <desc>Created with Sketch.</desc>
    <defs></defs>
    <g id="Page-1" stroke="none" stroke-width="1" fill="none" fill-rule="evenodd">
        <g id="objetivos" fill="#000000">
            <path d="M275.601981,188.518635 C259.360937,179.841642 240.825069,174.913436 221.161488,174.913436 C157.241307,174.913436 105.235985,226.917526 105.235985,290.838939 C105.235985,354.760351 157.241307,406.764441 221.161488,406.764441 C285.080438,406.764441 337.08576,354.760351 337.08576,290.838939 C337.08576,271.175357 332.157553,252.640721 323.480561,236.398445 L277.932507,281.950192 C278.384331,284.847037 278.621939,287.816519 278.621939,290.84017 C278.621939,322.524488 252.845806,348.301852 221.162719,348.301852 C189.478401,348.301852 163.701037,322.524488 163.701037,290.84017 C163.701037,259.155852 189.474708,233.377256 221.160257,233.377256 C224.182677,233.377256 227.153389,233.614864 230.052696,234.067919 L275.601981,188.518635 Z M0,290.839308 C0,412.78749 99.211705,512.001658 221.161119,512.001658 C343.109301,512.001658 442.318544,412.78749 442.318544,290.839308 C442.318544,242.054618 426.432064,196.91653 399.573769,160.307699 L357.584908,202.292867 C374.190366,227.791997 383.854723,258.207021 383.854723,290.836846 C383.854723,380.550396 310.872207,453.534144 221.161119,453.534144 C131.450031,453.534144 58.4638206,380.550396 58.4638206,290.839308 C58.4638206,201.12822 131.4488,128.14201 221.159887,128.14201 C253.794636,128.14201 284.20843,137.807598 309.707559,154.414288 L351.693959,112.427888 C315.082665,85.5683622 269.944577,69.6781893 221.161119,69.6781893 C99.211705,69.6781893 0,168.891125 0,290.839308 Z M466.015671,119.407155 C469.259694,119.407155 472.373217,118.118163 474.666809,115.82334 L508.413267,82.0744201 C511.64621,78.8451706 512.808395,74.0843975 511.4283,69.7298967 C510.050668,65.3729336 506.357283,62.1498397 501.855046,61.3668421 L458.212779,53.7867852 L450.635185,10.143287 C449.849725,5.64228199 446.6254,1.95012822 442.27213,0.572495656 C437.917629,-0.808830294 433.159319,0.353354819 429.927607,3.5850666 L396.179918,37.3315244 C393.886326,39.6263475 392.597335,42.739871 392.594872,45.9851252 L392.597335,96.3333481 L210.267234,278.658524 C203.894914,285.032076 203.894914,295.360011 210.267234,301.733562 C216.642016,308.10342 226.971182,308.105882 233.343502,301.733562 L415.667448,119.407155 L466.015671,119.407155 Z" id="Combined-Shape"></path>
        </g>
    </g>
</svg>