<?xml version="1.0" encoding="UTF-8" standalone="no"?>
<svg width="512px" height="512px" viewBox="0 0 512 512" version="1.1" xmlns="http://www.w3.org/2000/svg" xmlns:xlink="http://www.w3.org/1999/xlink">
    <!-- Generator: Sketch 39.1 (31720) - http://www.bohemiancoding.com/sketch -->
    <title>observatorio</title>
    <desc>Created with Sketch.</desc>
    <defs></defs>
    <g id="Page-1" stroke="none" stroke-width="1" fill="none" fill-rule="evenodd">
        <g id="observatorio" fill="#000000">
            <path d="M509.989049,460.303692 L362.408085,312.699313 C384.885909,280.481099 398.044802,241.308808 398.044802,199.022401 C398.044802,89.1152068 308.929595,0 199.022401,0 C89.1152068,0 0,89.1152068 0,199.022401 C0,308.929595 89.1152068,398.044802 199.022401,398.044802 C241.285393,398.044802 280.481099,384.885909 312.699313,362.408085 L312.699313,362.384671 L460.303692,509.989049 C463.043177,512.705119 467.421669,512.798777 470.207983,509.989049 L509.989049,470.207983 C512.728534,467.491913 512.611462,462.926105 509.989049,460.303692 Z M199.022401,351.216002 C114.964705,351.216002 46.8288002,283.080097 46.8288002,199.022401 C46.8288002,114.964705 114.964705,46.8288002 199.022401,46.8288002 C283.080097,46.8288002 351.216002,114.964705 351.216002,199.022401 C351.216002,283.080097 283.080097,351.216002 199.022401,351.216002 Z" id="Combined-Shape"></path>
        </g>
    </g>
</svg>